<svg xmlns="http://www.w3.org/2000/svg" width="34" height="35.025" viewBox="0 0 34 35.025">
  <g id="woman-with-headset" transform="translate(-476 -3590)">
    <g id="woman-with-headset-2" data-name="woman-with-headset" transform="translate(476 3590)">
      <path id="Forma_1" data-name="Forma 1" d="M14.33,18.454A1.746,1.746,0,1,1,12.584,16.7,1.75,1.75,0,0,1,14.33,18.454ZM21.416,16.7a1.755,1.755,0,1,0,1.746,1.755A1.75,1.75,0,0,0,21.416,16.7Zm7.457,7.142v-.2a15.475,15.475,0,0,1-.7,1.677,10.468,10.468,0,0,0,.286,1.319,8.691,8.691,0,0,0,4.13,2.9,4.717,4.717,0,0,1-2.527.316A7.542,7.542,0,0,0,33.6,32.343c-3.733,3.382-9.885,3.457-14.185.831A8.565,8.565,0,0,1,17,33.549a8.565,8.565,0,0,1-2.411-.375C10.289,35.8,4.138,35.725.4,32.343a7.536,7.536,0,0,0,3.578-2.549,4.756,4.756,0,0,1-2.026-.362,9.01,9.01,0,0,0,3.312-1.969,10.5,10.5,0,0,0,.558-2.144,15.476,15.476,0,0,1-.7-1.677v.2H3.016A3.024,3.024,0,0,1,0,20.81V17.476a3.033,3.033,0,0,1,1.581-2.667c.032-4.734,1.4-8.432,4.086-10.988C8.327,1.286,12.14,0,17,0s8.673,1.286,11.333,3.821c2.682,2.556,4.055,6.254,4.086,10.988A3.033,3.033,0,0,1,34,17.476V20.81a3.024,3.024,0,0,1-3.016,3.031Zm-1.256-5.377c0-.78-.04-1.513-.1-2.223-1.361-1.251-3.85-2.195-6.989-2.528a3.808,3.808,0,0,1,1.154,1.9c-1.825-1.341-5.651-1.756-6.921-3.193h0c-2.022-1.346-2.553-3.273-2.57-2.475-.082,3.826-2.78,6.808-5.775,7.229-.019.421-.034.845-.034,1.289a13.788,13.788,0,0,0,.709,4.419c1.683,2.04,4.462,2.616,6.921,2.769a3.139,3.139,0,0,1,2.674-1.24c1.618,0,2.929.936,2.929,2.09s-1.311,2.09-2.929,2.09a3.073,3.073,0,0,1-2.729-1.335,14.36,14.36,0,0,1-5.293-1.194c2.369,3.509,6.041,5.365,8.334,5.365C20.6,31.427,27.617,26.852,27.617,18.465Zm1.826-4.021H30.6C30.411,6.183,25.72,1.819,17,1.819S3.589,6.183,3.4,14.444h1.16A14.6,14.6,0,0,1,7.24,7.609C9.409,4.8,12.693,3.381,17,3.381S24.591,4.8,26.76,7.609A14.6,14.6,0,0,1,29.443,14.444Z"/>
    </g>
    <path id="Color_Overlay" data-name="Color Overlay" d="M495.411,3623.174a7.943,7.943,0,0,1-4.822,0c-4.3,2.626-10.452,2.552-14.185-.831a7.53,7.53,0,0,0,3.578-2.549,4.746,4.746,0,0,1-2.026-.362,8.985,8.985,0,0,0,3.312-1.969,10.419,10.419,0,0,0,.558-2.144,15.442,15.442,0,0,1-.7-1.677v.2h-2.112A3.023,3.023,0,0,1,476,3610.81v-3.335a3.031,3.031,0,0,1,1.582-2.666c.031-4.735,1.4-8.432,4.086-10.988,2.661-2.536,6.473-3.822,11.333-3.822s8.673,1.286,11.333,3.822c2.682,2.556,4.055,6.253,4.087,10.988a3.031,3.031,0,0,1,1.581,2.666v3.335a3.023,3.023,0,0,1-3.016,3.031h-2.111v-.2a15.631,15.631,0,0,1-.7,1.677,10.531,10.531,0,0,0,.286,1.318,8.689,8.689,0,0,0,4.13,2.9,4.718,4.718,0,0,1-2.527.317,7.546,7.546,0,0,0,3.532,2.487,11.049,11.049,0,0,1-7.458,2.681A13.031,13.031,0,0,1,495.411,3623.174ZM493,3621.428c3.6,0,10.616-4.575,10.616-12.962,0-.781-.039-1.513-.1-2.224-1.36-1.251-3.85-2.195-6.988-2.527a3.807,3.807,0,0,1,1.154,1.9c-1.825-1.34-5.65-1.756-6.921-3.193h0c-2.023-1.346-2.553-3.273-2.571-2.475-.082,3.825-2.78,6.808-5.776,7.229-.019.421-.035.845-.035,1.289a13.787,13.787,0,0,0,.71,4.419c1.682,2.04,4.462,2.616,6.921,2.769a3.139,3.139,0,0,1,2.674-1.24c1.618,0,2.929.936,2.929,2.09s-1.311,2.089-2.929,2.089a3.072,3.072,0,0,1-2.729-1.335,14.362,14.362,0,0,1-5.293-1.195C487.035,3619.572,490.707,3621.428,493,3621.428Zm9.76-23.819a14.59,14.59,0,0,1,2.683,6.836h1.16c-.191-8.261-4.883-12.626-13.6-12.626s-13.411,4.364-13.6,12.626h1.16a14.609,14.609,0,0,1,2.683-6.836c2.17-2.805,5.453-4.229,9.76-4.229S500.591,3594.8,502.76,3597.609Zm-7.089,10.845a1.746,1.746,0,1,1,1.745,1.755A1.75,1.75,0,0,1,495.671,3608.454Zm-8.832,0a1.746,1.746,0,1,1,1.745,1.755A1.75,1.75,0,0,1,486.838,3608.454Z" fill="#353535"/>
  </g>
</svg>
