<svg xmlns="http://www.w3.org/2000/svg" width="29.001" height="35" viewBox="0 0 29.001 35">
  <g id="folded-document-icon" transform="translate(-1179.999 -3593)">
    <g id="folded-document-icon-2" data-name="folded-document-icon" transform="translate(1180 3593)">
      <path id="Forma_1" data-name="Forma 1" d="M6.085,32.246l.021-.016A7.047,7.047,0,0,1,0,25.237a1.883,1.883,0,0,1,.021-.211V.729A.727.727,0,0,1,.745,0h27.53A.728.728,0,0,1,29,.729V33.542A1.453,1.453,0,0,1,27.552,35ZM11,22.291l14.374,8.484V3.645H3.643V25.138c.007.064,0,.158,0,.224a3.281,3.281,0,0,0,3.368,3.287,3.4,3.4,0,0,0,3.381-3.412c0-.042,0-.081,0-.123V22.629c0-.279.131-.437.323-.437A.549.549,0,0,1,11,22.291ZM7.025,16.2V14.015H21.968V16.2Zm0-5.243V8.772H21.968v2.187Z"/>
    </g>
    <path id="Color_Overlay" data-name="Color Overlay" d="M1186.084,3625.245l.021-.016a7.048,7.048,0,0,1-6.106-6.992,1.8,1.8,0,0,1,.021-.211v-24.3a.726.726,0,0,1,.725-.729h27.53a.726.726,0,0,1,.725.729v32.812a1.453,1.453,0,0,1-1.449,1.459Zm4.919-9.955,14.374,8.484v-27.129h-21.735v21.492c.006.064,0,.158,0,.224a3.28,3.28,0,0,0,3.368,3.287,3.4,3.4,0,0,0,3.381-3.412c0-.042,0-.081,0-.123v-2.485c0-.279.131-.437.323-.437A.552.552,0,0,1,1191,3615.291Zm-3.978-6.088v-2.187h14.942v2.187Zm0-5.243v-2.188h14.942v2.188Z" fill="#353535"/>
  </g>
</svg>
