<svg xmlns="http://www.w3.org/2000/svg" width="35" height="35" viewBox="0 0 35 35">
  <g id="wall-clock" transform="translate(-709.046 -3591.046)">
    <g id="wall-clock-2" data-name="wall-clock" transform="translate(709 3591)">
      <path id="Forma_1" data-name="Forma 1" d="M.046,17.546a17.5,17.5,0,1,1,17.5,17.5A17.52,17.52,0,0,1,.046,17.546ZM18.467,29.5v1.832a13.715,13.715,0,0,0,5.6-1.605l-.755-1.3a.487.487,0,0,1,.176-.667.479.479,0,0,1,.244-.066.49.49,0,0,1,.423.243l.754,1.3a13.93,13.93,0,0,0,4.114-4l-1.583-.914a.921.921,0,1,1,.921-1.6l1.585.915a13.721,13.721,0,0,0,1.411-5.649l-1.5,0h0a.488.488,0,0,1,0-.975l1.5,0a13.718,13.718,0,0,0-1.408-5.564l-1.585.915a.921.921,0,0,1-.921-1.6l1.583-.914a13.925,13.925,0,0,0-4.186-4.044l-.746,1.3a.489.489,0,0,1-.424.245.48.48,0,0,1-.242-.065.488.488,0,0,1-.18-.665l.747-1.3a13.714,13.714,0,0,0-5.521-1.566V5.594a.921.921,0,0,1-1.842,0V3.762a13.715,13.715,0,0,0-5.6,1.605l.755,1.3a.487.487,0,0,1-.177.666.492.492,0,0,1-.488,0,.48.48,0,0,1-.178-.178l-.754-1.3a13.926,13.926,0,0,0-4.114,4l1.583.914a.921.921,0,1,1-.921,1.6l-1.585-.915A13.723,13.723,0,0,0,3.738,17.1l1.506,0a.487.487,0,0,1,0,.975l-1.5,0A13.718,13.718,0,0,0,5.149,23.64l1.585-.915a.921.921,0,1,1,.921,1.6l-1.583.914a13.929,13.929,0,0,0,4.186,4.044l.746-1.3a.49.49,0,0,1,.424-.245.488.488,0,0,1,.422.73l-.747,1.3a13.714,13.714,0,0,0,5.522,1.566V29.5a.921.921,0,0,1,1.842,0ZM15.644,17.919,9.616,14.575a1.157,1.157,0,1,1,1.122-2.023l5.908,3.278a1.932,1.932,0,0,1,1.8,0l5.908-3.278a1.157,1.157,0,0,1,1.122,2.023l-6.028,3.344a1.938,1.938,0,0,1-3.8,0Z"/>
    </g>
    <path id="Color_Overlay" data-name="Color Overlay" d="M709.046,3608.546a17.5,17.5,0,1,1,17.5,17.5A17.52,17.52,0,0,1,709.046,3608.546Zm18.422,11.953v1.832a13.721,13.721,0,0,0,5.6-1.605l-.755-1.3a.488.488,0,0,1,.42-.733.491.491,0,0,1,.423.243l.754,1.3a13.924,13.924,0,0,0,4.114-4l-1.583-.914a.921.921,0,0,1,.921-1.6l1.585.916a13.719,13.719,0,0,0,1.411-5.648l-1.5,0h0a.5.5,0,0,1-.241-.063.488.488,0,0,1-.246-.422.488.488,0,0,1,.485-.49l1.5,0a13.716,13.716,0,0,0-1.408-5.565l-1.585.916a.921.921,0,0,1-.921-1.6l1.583-.914a13.931,13.931,0,0,0-4.186-4.045l-.747,1.3a.487.487,0,0,1-.845-.485l.747-1.3a13.718,13.718,0,0,0-5.521-1.566v1.832a.921.921,0,0,1-1.843,0v-1.832a13.716,13.716,0,0,0-5.6,1.606l.754,1.3a.486.486,0,0,1-.177.666.494.494,0,0,1-.488,0,.486.486,0,0,1-.178-.178l-.753-1.3a13.917,13.917,0,0,0-4.115,4l1.583.914a.921.921,0,1,1-.921,1.6l-1.585-.916a13.719,13.719,0,0,0-1.411,5.649l1.506,0a.488.488,0,0,1,0,.976l-1.5,0a13.714,13.714,0,0,0,1.408,5.564l1.585-.916a.921.921,0,0,1,.921,1.6l-1.583.914a13.915,13.915,0,0,0,4.186,4.044l.746-1.3a.49.49,0,0,1,.424-.245.475.475,0,0,1,.242.064.488.488,0,0,1,.18.665l-.747,1.3a13.706,13.706,0,0,0,5.522,1.566V3620.5a.921.921,0,1,1,1.842,0Zm-2.824-11.58-6.027-3.344a1.157,1.157,0,1,1,1.122-2.023l5.908,3.278a1.934,1.934,0,0,1,1.8,0l5.908-3.278a1.157,1.157,0,1,1,1.122,2.023l-6.028,3.344a1.938,1.938,0,0,1-3.8,0Z" fill="#353535"/>
  </g>
</svg>
