<svg xmlns="http://www.w3.org/2000/svg" width="35.001" height="35" viewBox="0 0 35.001 35">
  <g id="calendar-with-a-clock-time-tools" transform="translate(-1413.068 -3593.068)">
    <g id="calendar-with-a-clock-time-tools-2" data-name="calendar-with-a-clock-time-tools" transform="translate(1413 3593)">
      <path id="Forma_1" data-name="Forma 1" d="M4.443,5.537V1.162a1.094,1.094,0,0,1,2.188,0V5.537a1.094,1.094,0,0,1-2.187,0ZM23.037,6.631a1.093,1.093,0,0,0,1.094-1.094V1.162a1.094,1.094,0,0,0-2.187,0V5.537A1.093,1.093,0,0,0,23.037,6.631ZM35.068,26.318a8.75,8.75,0,1,1-8.75-8.75A8.75,8.75,0,0,1,35.068,26.318Zm-2.187,0a6.563,6.563,0,1,0-6.562,6.563A6.57,6.57,0,0,0,32.881,26.318ZM8.818,13.193H4.443v4.375H8.818ZM4.443,24.131H8.818V19.756H4.443Zm6.563-6.562h4.375V13.193H11.006Zm0,6.563h4.375V19.756H11.006ZM2.256,26.1V11.006H26.318v4.375h2.188V6.849a2.387,2.387,0,0,0-2.369-2.405h-.912V5.537a2.188,2.188,0,0,1-4.375,0V4.443H7.725V5.537a2.188,2.188,0,0,1-4.375,0V4.443H2.439A2.387,2.387,0,0,0,.068,6.849V26.1a2.39,2.39,0,0,0,2.37,2.405H15.381V26.318H2.439A.207.207,0,0,1,2.256,26.1Zm19.688-8.532V13.193H17.568v4.375Zm7.656,8.75H26.318V23.037a1.094,1.094,0,0,0-2.187,0v4.375a1.093,1.093,0,0,0,1.094,1.094H29.6a1.094,1.094,0,0,0,0-2.187Z"/>
    </g>
    <path id="Color_Overlay" data-name="Color Overlay" d="M1430.568,3619.318a8.75,8.75,0,1,1,8.75,8.75A8.751,8.751,0,0,1,1430.568,3619.318Zm2.188,0a6.562,6.562,0,1,0,6.562-6.562A6.57,6.57,0,0,0,1432.756,3619.318Zm5.469,2.188a1.093,1.093,0,0,1-1.094-1.094v-4.374a1.094,1.094,0,1,1,2.187,0v3.281h3.281a1.094,1.094,0,0,1,0,2.188Zm-22.787,0a2.391,2.391,0,0,1-2.37-2.406v-19.251a2.387,2.387,0,0,1,2.37-2.406h.911v1.094a2.188,2.188,0,0,0,4.375,0v-1.094h13.125v1.094a2.188,2.188,0,0,0,4.375,0v-1.094h.912a2.386,2.386,0,0,1,2.368,2.406v8.531h-2.187v-4.375h-24.062V3619.1a.207.207,0,0,0,.182.218h12.943v2.188Zm8.568-4.375v-4.375h4.375v4.375Zm-6.563,0v-4.375h4.375v4.375Zm13.125-6.563v-4.375h4.375v4.375Zm-6.562,0v-4.375h4.375v4.375Zm-6.563,0v-4.375h4.375v4.375Zm17.5-12.031v-4.375a1.094,1.094,0,0,1,2.188,0v4.375a1.094,1.094,0,0,1-2.188,0Zm-17.5,0v-4.375a1.094,1.094,0,0,1,2.188,0v4.375a1.094,1.094,0,0,1-2.188,0Z" fill="#353535"/>
  </g>
</svg>
