<svg xmlns="http://www.w3.org/2000/svg" width="16" height="20" viewBox="0 0 16 20">
  <g id="calculator" transform="translate(-388 -488)">
    <g id="calculator-2" data-name="calculator" transform="translate(388 488)">
      <path id="Shape_1" data-name="Shape 1" d="M14.094,0H1.906A1.928,1.928,0,0,0,0,1.945V18.055A1.928,1.928,0,0,0,1.906,20H14.094A1.928,1.928,0,0,0,16,18.055V1.945A1.928,1.928,0,0,0,14.094,0ZM2.7,3.38a.747.747,0,0,1,.739-.754h9.124a.747.747,0,0,1,.739.754V5.74a.747.747,0,0,1-.739.754H3.438A.747.747,0,0,1,2.7,5.74V3.38ZM5.09,17.3a.3.3,0,0,1-.3.3H1.983a.3.3,0,0,1-.3-.3V15.7a.3.3,0,0,1,.3-.3H4.792a.3.3,0,0,1,.3.3Zm0-3.409a.3.3,0,0,1-.3.3H1.983a.3.3,0,0,1-.3-.3v-1.6a.3.3,0,0,1,.3-.3H4.792a.3.3,0,0,1,.3.3Zm0-3.439a.3.3,0,0,1-.3.3H1.983a.3.3,0,0,1-.3-.3v-1.6a.3.3,0,0,1,.3-.3H4.792a.3.3,0,0,1,.3.3ZM9.746,17.3h0a.3.3,0,0,1-.3.3H6.638a.3.3,0,0,1-.3-.3V15.7a.3.3,0,0,1,.3-.3H9.447a.3.3,0,0,1,.3.3Zm0-3.409h0a.3.3,0,0,1-.3.3H6.638a.3.3,0,0,1-.3-.3v-1.6a.3.3,0,0,1,.3-.3H9.447a.3.3,0,0,1,.3.3Zm0-3.439h0a.3.3,0,0,1-.3.3H6.638a.3.3,0,0,1-.3-.3v-1.6a.3.3,0,0,1,.3-.3H9.447a.3.3,0,0,1,.3.3Zm4.57,6.848a.3.3,0,0,1-.3.3H11.208a.3.3,0,0,1-.3-.3V12.288a.3.3,0,0,1,.3-.3h2.809a.3.3,0,0,1,.3.3Zm0-6.848a.3.3,0,0,1-.3.3H11.208a.3.3,0,0,1-.3-.3v-1.6a.3.3,0,0,1,.3-.3h2.809a.3.3,0,0,1,.3.3Z"/>
    </g>
    <path id="Color_Overlay" data-name="Color Overlay" d="M389.906,508A1.928,1.928,0,0,1,388,506.056V489.945A1.928,1.928,0,0,1,389.906,488h12.188A1.928,1.928,0,0,1,404,489.945v16.111A1.928,1.928,0,0,1,402.094,508Zm9-7.712V505.3a.3.3,0,0,0,.3.3h2.81a.3.3,0,0,0,.3-.3v-5.012a.3.3,0,0,0-.3-.3h-2.81A.3.3,0,0,0,398.91,500.288Zm-4.569,3.41v1.6a.3.3,0,0,0,.3.3h2.809a.3.3,0,0,0,.3-.3v-1.6a.3.3,0,0,0-.3-.3h-2.809A.3.3,0,0,0,394.34,503.7Zm-4.656,0v1.6a.3.3,0,0,0,.3.3h2.81a.3.3,0,0,0,.3-.3v-1.6a.3.3,0,0,0-.3-.3h-2.81A.3.3,0,0,0,389.685,503.7Zm4.656-3.41v1.6a.3.3,0,0,0,.3.3h2.809a.3.3,0,0,0,.3-.3v-1.6a.3.3,0,0,0-.3-.3h-2.809A.3.3,0,0,0,394.34,500.288Zm-4.656,0v1.6a.3.3,0,0,0,.3.3h2.81a.3.3,0,0,0,.3-.3v-1.6a.3.3,0,0,0-.3-.3h-2.81A.3.3,0,0,0,389.685,500.288Zm9.225-3.438v1.6a.3.3,0,0,0,.3.3h2.81a.3.3,0,0,0,.3-.3v-1.6a.3.3,0,0,0-.3-.3h-2.81A.3.3,0,0,0,398.91,496.85Zm-4.569,0v1.6a.3.3,0,0,0,.3.3h2.809a.3.3,0,0,0,.3-.3v-1.6a.3.3,0,0,0-.3-.3h-2.809A.3.3,0,0,0,394.34,496.85Zm-4.656,0v1.6a.3.3,0,0,0,.3.3h2.81a.3.3,0,0,0,.3-.3v-1.6a.3.3,0,0,0-.3-.3h-2.81A.3.3,0,0,0,389.685,496.85Zm1.014-5.469v2.36a.746.746,0,0,0,.739.754h9.124a.746.746,0,0,0,.739-.754v-2.36a.746.746,0,0,0-.739-.754h-9.124A.746.746,0,0,0,390.7,491.38Z" fill="#333"/>
  </g>
</svg>
