<svg xmlns="http://www.w3.org/2000/svg" width="20.008" height="16" viewBox="0 0 20.008 16">
  <g id="paint-board-and-brush" transform="translate(-385.997 -560)">
    <g id="paint-board-and-brush-2" data-name="paint-board-and-brush" transform="translate(386 560)">
      <path id="Forma_1" data-name="Forma 1" d="M19.6.507a.28.28,0,0,0-.485-.058,2.457,2.457,0,0,1-1.346.834,5.063,5.063,0,0,0-1.356.647,1.7,1.7,0,0,0-.836,1.759l-.017.021a9.023,9.023,0,0,0-.919-1.117A8.648,8.648,0,0,0,8.792.005C8.7,0,8.6,0,8.5,0A8.537,8.537,0,0,0,2.073,2.958a8.241,8.241,0,0,0-1.98,6.68c.031.2.07.4.115.6a7.455,7.455,0,0,0,4.218,5.449A4.043,4.043,0,0,0,5.961,16a3.425,3.425,0,0,0,3.017-1.821,3.9,3.9,0,0,0,.48-1.353,3.22,3.22,0,0,0-.014-.8,2.973,2.973,0,0,1-.012-.78,1.056,1.056,0,0,1,1.114-.938,1.739,1.739,0,0,1,.521.083c-.2.37-.391.724-.553,1.051a10.59,10.59,0,0,0-.706,1.709c-.077.271-.28.991.216,1.331a.751.751,0,0,0,.566.108c.188-.034.758-.139,2.38-1.958.435-.488.9-1.053,1.394-1.679a3.743,3.743,0,0,0,2.5-2.651,3.852,3.852,0,0,0,.08-.95c.471-.718.884-1.387,1.3-2.107l.024-.044a2.281,2.281,0,0,0,1.428-1.273A4.3,4.3,0,0,0,19.6.507ZM12.8,4.98a1.2,1.2,0,0,1-1.634.366,1.161,1.161,0,0,1-.524-.729,1.146,1.146,0,0,1,.153-.881,1.2,1.2,0,0,1,1.634-.366,1.161,1.161,0,0,1,.524.729A1.146,1.146,0,0,1,12.8,4.98ZM14.336,7.1c.6-.87,1.233-1.734,1.834-2.5a3.247,3.247,0,0,0,.325.252,2.509,2.509,0,0,0,.61.308c-.508.856-1.054,1.7-1.716,2.664a43.906,43.906,0,0,1-3.182,4.127,12.182,12.182,0,0,1-1.374,1.362,12.127,12.127,0,0,1,.782-1.769A43.839,43.839,0,0,1,14.336,7.1ZM3.819,7.088a1.194,1.194,0,0,1-.63-.18,1.16,1.16,0,0,1-.524-.729A1.146,1.146,0,0,1,2.817,5.3a1.2,1.2,0,0,1,1.634-.366,1.159,1.159,0,0,1,.371,1.61A1.184,1.184,0,0,1,3.819,7.088ZM2.577,9.66a1.2,1.2,0,0,1,1.634-.366,1.161,1.161,0,0,1,.524.729,1.145,1.145,0,0,1-.153.881,1.2,1.2,0,0,1-1.634.366,1.16,1.16,0,0,1-.524-.729A1.147,1.147,0,0,1,2.577,9.66ZM6.371,2.725a1.2,1.2,0,0,1,1.634-.366,1.159,1.159,0,0,1,.371,1.61,1.2,1.2,0,0,1-1.634.366,1.16,1.16,0,0,1-.524-.729A1.146,1.146,0,0,1,6.371,2.725Z"/>
    </g>
    <path id="Color_Overlay" data-name="Color Overlay" d="M390.425,575.683a7.453,7.453,0,0,1-4.218-5.449c-.045-.2-.084-.4-.115-.6a8.242,8.242,0,0,1,1.981-6.68A8.537,8.537,0,0,1,394.5,560c.1,0,.194,0,.292.005a8.648,8.648,0,0,1,5.85,2.588,8.968,8.968,0,0,1,.919,1.117l.017-.022a1.693,1.693,0,0,1,.836-1.759,5.07,5.07,0,0,1,1.356-.648,2.455,2.455,0,0,0,1.346-.833.28.28,0,0,1,.485.058,4.3,4.3,0,0,1,.092,3.419,2.279,2.279,0,0,1-1.428,1.273c-.007.015-.015.031-.023.044-.416.72-.829,1.39-1.3,2.107a3.839,3.839,0,0,1-.08.949,3.744,3.744,0,0,1-2.5,2.651c-.491.626-.959,1.192-1.394,1.679-1.622,1.82-2.192,1.924-2.38,1.958a.753.753,0,0,1-.566-.108c-.5-.339-.293-1.06-.216-1.331a10.58,10.58,0,0,1,.706-1.709c.162-.328.348-.681.553-1.051a1.746,1.746,0,0,0-.522-.083,1.056,1.056,0,0,0-1.113.938,2.95,2.95,0,0,0,.012.78,3.226,3.226,0,0,1,.014.8,3.889,3.889,0,0,1-.48,1.354A3.424,3.424,0,0,1,391.962,576,4.034,4.034,0,0,1,390.425,575.683Zm9.911-8.587a43.83,43.83,0,0,0-2.721,4.442,12.127,12.127,0,0,0-.782,1.768,12.092,12.092,0,0,0,1.374-1.362,43.792,43.792,0,0,0,3.182-4.127c.661-.959,1.208-1.808,1.716-2.664a2.513,2.513,0,0,1-.61-.309,3.309,3.309,0,0,1-.325-.252C401.569,565.361,400.936,566.226,400.336,567.1Zm-11.759,2.563a1.144,1.144,0,0,0-.153.881,1.16,1.16,0,0,0,.524.729,1.2,1.2,0,0,0,1.634-.365,1.156,1.156,0,0,0-.372-1.61,1.195,1.195,0,0,0-1.633.365Zm.24-4.361a1.148,1.148,0,0,0-.153.881,1.162,1.162,0,0,0,.525.73,1.2,1.2,0,0,0,.63.179,1.181,1.181,0,0,0,1-.545,1.159,1.159,0,0,0-.371-1.61,1.2,1.2,0,0,0-1.634.365Zm7.976-1.562a1.157,1.157,0,0,0,.372,1.61,1.195,1.195,0,0,0,1.633-.365,1.143,1.143,0,0,0,.153-.881,1.16,1.16,0,0,0-.524-.729,1.2,1.2,0,0,0-1.634.365Zm-4.422-1.012a1.148,1.148,0,0,0-.153.881,1.162,1.162,0,0,0,.525.73,1.2,1.2,0,0,0,.63.179,1.182,1.182,0,0,0,1-.545,1.159,1.159,0,0,0-.371-1.61,1.2,1.2,0,0,0-1.634.365Z" fill="#333"/>
  </g>
</svg>
