<svg xmlns="http://www.w3.org/2000/svg" width="34.978" height="32.007" viewBox="0 0 34.978 32.007">
  <path id="Forma_1" data-name="Forma 1" d="M967.844,3625.019H946.128v-16.994h29.86v16.994Zm2.172-2.093.886-.853a1.6,1.6,0,0,1-.067-.324,1.73,1.73,0,0,1,1.76-1.7,1.673,1.673,0,0,1,.337.065l.885-.852v-5.489l-.886-.853a1.808,1.808,0,0,1-.336.064,1.729,1.729,0,0,1-1.761-1.7,1.5,1.5,0,0,1,.067-.324l-.885-.853H952.1l-.886.854a1.553,1.553,0,0,1,.067.323,1.728,1.728,0,0,1-1.76,1.7,1.671,1.671,0,0,1-.337-.064l-.884.851v5.491l.885.852a1.87,1.87,0,0,1,.336-.064,1.73,1.73,0,0,1,1.762,1.695,1.559,1.559,0,0,1-.068.325l.885.852Zm-14.285-6.406c0-2.463,2.386-4.46,5.329-4.46s5.33,2,5.33,4.46-2.386,4.46-5.33,4.46S955.73,3618.983,955.73,3616.52Zm12.39,0a1.761,1.761,0,1,1,1.76,1.7A1.731,1.731,0,0,1,968.12,3616.52Zm-17.64,0a1.761,1.761,0,1,1,1.76,1.7A1.731,1.731,0,0,1,950.48,3616.52Zm-9.471-9.7,7.144-3.766,11.905-6.279h0l7.143-3.766,3.916,6.878h0l3.51,6.175h-5.2a1.7,1.7,0,0,1,.8-.932,1.648,1.648,0,0,1,.326-.1l.351-1.158-2.738-4.813-1.2-.341a1.492,1.492,0,0,1-.258.213,1.8,1.8,0,0,1-2.393-.672,1.574,1.574,0,0,1-.106-.316l-1.2-.337-15.712,8.287-.051.166h-1.113a2,2,0,0,0-2.036,1.962v4.219Zm12.6-.761a5.621,5.621,0,0,1,2.511-2.606c2.583-1.361,5.67-.712,6.9,1.45a3.758,3.758,0,0,1,.407,1.156Zm10.714-2.772a1.761,1.761,0,1,1,1.759,1.7A1.731,1.731,0,0,1,964.32,3603.29Z" transform="translate(-941.009 -3593.012)" fill="#353535"/>
</svg>
