<svg xmlns="http://www.w3.org/2000/svg" width="45.325" height="19.024" viewBox="0 0 45.325 19.024">
  <g id="copy" transform="translate(-174.698 -1693.976)">
    <g id="copy-2" data-name="copy" transform="translate(220 1694) rotate(180)">
      <path id="Forma_1" data-name="Forma 1" d="M43.994-8.161H4.444l5.834,5.919a1.34,1.34,0,0,1,0,1.877,1.3,1.3,0,0,1-1.85,0L.36-8.55a1.34,1.34,0,0,1,0-1.877l8.067-8.185A1.294,1.294,0,0,1,9.353-19a1.294,1.294,0,0,1,.925.389,1.34,1.34,0,0,1,0,1.877L4.444-10.815h39.55A1.318,1.318,0,0,1,45.3-9.488,1.318,1.318,0,0,1,43.994-8.161Z"/>
    </g>
    <path id="Color_Overlay" data-name="Color Overlay" d="M209.723,1712.611a1.34,1.34,0,0,1,0-1.876l5.834-5.919h-39.55a1.327,1.327,0,0,1,0-2.654h39.55l-5.834-5.919a1.34,1.34,0,0,1,0-1.876,1.294,1.294,0,0,1,1.85,0l8.068,8.185a1.34,1.34,0,0,1,0,1.877l-8.068,8.185a1.294,1.294,0,0,1-1.85,0Z" fill="#969696"/>
  </g>
</svg>
